G04 Layer: TopSilkLayer*
G04 EasyEDA v6.3.43, 2020-06-06T15:57:54+05:30*
G04 0c4f591c9b8d4e2986bfd51771ce5363,ce87656978294113a3ba7bd55cf5f399,10*
G04 Gerber Generator version 0.2*
G04 Scale: 100 percent, Rotated: No, Reflected: No *
G04 Dimensions in millimeters *
G04 leading zeros omitted , absolute positions ,3 integer and 3 decimal *
%FSLAX33Y33*%
%MOMM*%
G90*
G71D02*

%ADD10C,0.254000*%
%ADD14C,0.200000*%
%ADD15C,0.599999*%
%ADD16C,0.249999*%
%ADD17C,0.203200*%
%ADD18C,0.152400*%

%LPD*%
G54D14*
G01X8509Y18993D02*
G01X11049Y18993D01*
G01X14859Y8833D02*
G01X8509Y8833D01*
G01X12319Y18993D02*
G01X14859Y18993D01*
G01X8509Y8839D02*
G01X8509Y9321D01*
G01X8509Y10744D02*
G01X8509Y11861D01*
G01X8509Y13284D02*
G01X8509Y14401D01*
G01X8509Y15824D02*
G01X8509Y16698D01*
G01X8509Y18607D02*
G01X8509Y18993D01*
G01X14859Y18993D02*
G01X14859Y18364D01*
G01X14859Y16941D02*
G01X14859Y15824D01*
G01X14859Y14401D02*
G01X14859Y13284D01*
G01X14859Y11861D02*
G01X14859Y10744D01*
G01X14859Y9321D02*
G01X14859Y8943D01*
G54D10*
G01X8660Y22916D02*
G01X14961Y22916D01*
G01X14961Y22916D02*
G01X14961Y20517D01*
G01X14961Y20517D02*
G01X8660Y20517D01*
G01X8660Y20517D02*
G01X8660Y22916D01*
G01X2610Y3961D02*
G01X2610Y10262D01*
G01X2610Y10262D02*
G01X5009Y10262D01*
G01X5009Y10262D02*
G01X5009Y3961D01*
G01X5009Y3961D02*
G01X2610Y3961D01*
G54D17*
G01X9652Y10660D02*
G01X9652Y9979D01*
G01X9697Y9842D01*
G01X9789Y9751D01*
G01X9923Y9705D01*
G01X10015Y9705D01*
G01X10152Y9751D01*
G01X10243Y9842D01*
G01X10289Y9979D01*
G01X10289Y10660D01*
G01X10952Y10660D02*
G01X10589Y9705D01*
G01X10952Y10660D02*
G01X11315Y9705D01*
G01X10723Y10025D02*
G01X11178Y10025D01*
G01X12252Y10660D02*
G01X11798Y9705D01*
G01X11615Y10660D02*
G01X12252Y10660D01*
G01X13007Y10660D02*
G01X12552Y10025D01*
G01X13233Y10025D01*
G01X13007Y10660D02*
G01X13007Y9705D01*
G01X13533Y10480D02*
G01X13624Y10525D01*
G01X13761Y10660D01*
G01X13761Y9705D01*
G01X16791Y25257D02*
G01X16791Y24437D01*
G01X16383Y24848D02*
G01X17200Y24848D01*
G01X17500Y25212D02*
G01X17592Y25257D01*
G01X17729Y25392D01*
G01X17729Y24437D01*
G01X18074Y25166D02*
G01X18074Y25212D01*
G01X18120Y25300D01*
G01X18166Y25346D01*
G01X18254Y25392D01*
G01X18437Y25392D01*
G01X18529Y25346D01*
G01X18575Y25300D01*
G01X18618Y25212D01*
G01X18618Y25120D01*
G01X18575Y25029D01*
G01X18483Y24892D01*
G01X18028Y24437D01*
G01X18663Y24437D01*
G01X18963Y25392D02*
G01X19329Y24437D01*
G01X19692Y25392D02*
G01X19329Y24437D01*
G01X3810Y24721D02*
G01X4627Y24721D01*
G01X4927Y25085D02*
G01X5019Y25130D01*
G01X5156Y25265D01*
G01X5156Y24310D01*
G01X5501Y25039D02*
G01X5501Y25085D01*
G01X5547Y25173D01*
G01X5593Y25219D01*
G01X5681Y25265D01*
G01X5864Y25265D01*
G01X5956Y25219D01*
G01X6002Y25173D01*
G01X6045Y25085D01*
G01X6045Y24993D01*
G01X6002Y24902D01*
G01X5910Y24765D01*
G01X5455Y24310D01*
G01X6090Y24310D01*
G01X6390Y25265D02*
G01X6756Y24310D01*
G01X7119Y25265D02*
G01X6756Y24310D01*
G01X11094Y26944D02*
G01X11051Y27035D01*
G01X10960Y27124D01*
G01X10868Y27170D01*
G01X10685Y27170D01*
G01X10596Y27124D01*
G01X10505Y27035D01*
G01X10459Y26944D01*
G01X10414Y26807D01*
G01X10414Y26581D01*
G01X10459Y26443D01*
G01X10505Y26352D01*
G01X10596Y26261D01*
G01X10685Y26215D01*
G01X10868Y26215D01*
G01X10960Y26261D01*
G01X11051Y26352D01*
G01X11094Y26443D01*
G01X11094Y26581D01*
G01X10868Y26581D02*
G01X11094Y26581D01*
G01X11396Y27170D02*
G01X11396Y26215D01*
G01X11396Y27170D02*
G01X12031Y26215D01*
G01X12031Y27170D02*
G01X12031Y26215D01*
G01X12331Y27170D02*
G01X12331Y26215D01*
G01X12331Y27170D02*
G01X12649Y27170D01*
G01X12786Y27124D01*
G01X12877Y27035D01*
G01X12923Y26944D01*
G01X12969Y26807D01*
G01X12969Y26581D01*
G01X12923Y26443D01*
G01X12877Y26352D01*
G01X12786Y26261D01*
G01X12649Y26215D01*
G01X12331Y26215D01*
G01X12491Y4084D02*
G01X12448Y4175D01*
G01X12357Y4264D01*
G01X12265Y4310D01*
G01X12082Y4310D01*
G01X11993Y4264D01*
G01X11902Y4175D01*
G01X11856Y4084D01*
G01X11811Y3947D01*
G01X11811Y3721D01*
G01X11856Y3583D01*
G01X11902Y3492D01*
G01X11993Y3401D01*
G01X12082Y3355D01*
G01X12265Y3355D01*
G01X12357Y3401D01*
G01X12448Y3492D01*
G01X12491Y3583D01*
G01X12491Y3721D01*
G01X12265Y3721D02*
G01X12491Y3721D01*
G01X12793Y4310D02*
G01X12793Y3355D01*
G01X12793Y4310D02*
G01X13428Y3355D01*
G01X13428Y4310D02*
G01X13428Y3355D01*
G01X13728Y4310D02*
G01X13728Y3355D01*
G01X13728Y4310D02*
G01X14046Y4310D01*
G01X14183Y4264D01*
G01X14274Y4175D01*
G01X14320Y4084D01*
G01X14366Y3947D01*
G01X14366Y3721D01*
G01X14320Y3583D01*
G01X14274Y3492D01*
G01X14183Y3401D01*
G01X14046Y3355D01*
G01X13728Y3355D01*
G01X9425Y4048D02*
G01X9425Y3228D01*
G01X9017Y3639D02*
G01X9834Y3639D01*
G01X10134Y4183D02*
G01X10497Y3228D01*
G01X10863Y4183D02*
G01X10497Y3228D01*
G01X15394Y7985D02*
G01X15394Y7165D01*
G01X14986Y7576D02*
G01X15803Y7576D01*
G01X16103Y8120D02*
G01X16466Y7165D01*
G01X16832Y8120D02*
G01X16466Y7165D01*
G01X17358Y7802D02*
G01X17266Y7757D01*
G01X17178Y7665D01*
G01X17132Y7531D01*
G01X17132Y7439D01*
G01X17178Y7302D01*
G01X17266Y7211D01*
G01X17358Y7165D01*
G01X17495Y7165D01*
G01X17586Y7211D01*
G01X17675Y7302D01*
G01X17721Y7439D01*
G01X17721Y7531D01*
G01X17675Y7665D01*
G01X17586Y7757D01*
G01X17495Y7802D01*
G01X17358Y7802D01*
G01X15793Y4211D02*
G01X15750Y4302D01*
G01X15659Y4391D01*
G01X15567Y4437D01*
G01X15384Y4437D01*
G01X15295Y4391D01*
G01X15204Y4302D01*
G01X15158Y4211D01*
G01X15113Y4074D01*
G01X15113Y3848D01*
G01X15158Y3710D01*
G01X15204Y3619D01*
G01X15295Y3528D01*
G01X15384Y3482D01*
G01X15567Y3482D01*
G01X15659Y3528D01*
G01X15750Y3619D01*
G01X15793Y3710D01*
G01X15793Y3848D01*
G01X15567Y3848D02*
G01X15793Y3848D01*
G01X16095Y4437D02*
G01X16095Y3482D01*
G01X16095Y4437D02*
G01X16730Y3482D01*
G01X16730Y4437D02*
G01X16730Y3482D01*
G01X17030Y4437D02*
G01X17030Y3482D01*
G01X17030Y4437D02*
G01X17348Y4437D01*
G01X17485Y4391D01*
G01X17576Y4302D01*
G01X17622Y4211D01*
G01X17668Y4074D01*
G01X17668Y3848D01*
G01X17622Y3710D01*
G01X17576Y3619D01*
G01X17485Y3528D01*
G01X17348Y3482D01*
G01X17030Y3482D01*
G01X20683Y2024D02*
G01X20320Y1069D01*
G01X20683Y2024D02*
G01X21046Y1069D01*
G01X20457Y1389D02*
G01X20911Y1389D01*
G01X21346Y2024D02*
G01X21346Y1069D01*
G01X21346Y2024D02*
G01X21755Y2024D01*
G01X21892Y1978D01*
G01X21937Y1932D01*
G01X21983Y1844D01*
G01X21983Y1706D01*
G01X21937Y1615D01*
G01X21892Y1569D01*
G01X21755Y1524D01*
G01X21346Y1524D01*
G54D18*
G01X12954Y18425D02*
G01X12954Y17645D01*
G01X13004Y17490D01*
G01X13108Y17386D01*
G01X13266Y17335D01*
G01X13370Y17335D01*
G01X13525Y17386D01*
G01X13629Y17490D01*
G01X13680Y17645D01*
G01X13680Y18425D01*
G01X14023Y18216D02*
G01X14127Y18270D01*
G01X14284Y18425D01*
G01X14284Y17335D01*
G01X10922Y22362D02*
G01X10922Y21272D01*
G01X10922Y22362D02*
G01X11389Y22362D01*
G01X11544Y22311D01*
G01X11597Y22258D01*
G01X11648Y22153D01*
G01X11648Y22049D01*
G01X11597Y21945D01*
G01X11544Y21894D01*
G01X11389Y21844D01*
G01X10922Y21844D01*
G01X11285Y21844D02*
G01X11648Y21272D01*
G01X11991Y22153D02*
G01X12095Y22207D01*
G01X12252Y22362D01*
G01X12252Y21272D01*
G01X1005Y6350D02*
G01X2095Y6350D01*
G01X1005Y6350D02*
G01X1005Y6817D01*
G01X1056Y6972D01*
G01X1109Y7025D01*
G01X1214Y7076D01*
G01X1318Y7076D01*
G01X1422Y7025D01*
G01X1473Y6972D01*
G01X1524Y6817D01*
G01X1524Y6350D01*
G01X1524Y6713D02*
G01X2095Y7076D01*
G01X1264Y7472D02*
G01X1214Y7472D01*
G01X1109Y7523D01*
G01X1056Y7576D01*
G01X1005Y7680D01*
G01X1005Y7886D01*
G01X1056Y7990D01*
G01X1109Y8044D01*
G01X1214Y8094D01*
G01X1318Y8094D01*
G01X1422Y8044D01*
G01X1577Y7940D01*
G01X2095Y7419D01*
G01X2095Y8148D01*
G54D15*
G75*
G01X10033Y18293D02*
G03X10038Y18293I3J-300D01*
G01*
G54D16*
G75*
G01X7874Y19078D02*
G03X7877Y19078I1J-125D01*
G01*
G54D14*
G75*
G01X11049Y18994D02*
G03X12319Y18994I635J0D01*
G01*
M00*
M02*
