G04 Layer: TopLayer*
G04 EasyEDA v6.3.43, 2020-06-06T15:57:54+05:30*
G04 0c4f591c9b8d4e2986bfd51771ce5363,ce87656978294113a3ba7bd55cf5f399,10*
G04 Gerber Generator version 0.2*
G04 Scale: 100 percent, Rotated: No, Reflected: No *
G04 Dimensions in millimeters *
G04 leading zeros omitted , absolute positions ,3 integer and 3 decimal *
%FSLAX33Y33*%
%MOMM*%
G90*
G71D02*

%ADD10C,0.254000*%
%ADD11C,1.524000*%
%ADD12C,1.499997*%
%ADD13R,1.499997X1.499997*%

%LPD*%
G54D10*
G01X18796Y3937D02*
G01X18796Y2794D01*
G01X17526Y1524D01*
G01X13843Y1524D01*
G01X18923Y7493D02*
G01X18923Y12319D01*
G01X11811Y24765D02*
G01X11811Y7112D01*
G01X14986Y24892D02*
G01X13970Y23876D01*
G01X13970Y21717D01*
G01X13970Y17526D01*
G01X13970Y15621D01*
G01X15240Y15367D01*
G01X8509Y24892D02*
G01X8509Y24765D01*
G01X9652Y23622D01*
G01X9652Y11430D01*
G01X8001Y9779D01*
G01X6659Y21717D02*
G01X3683Y21717D01*
G01X2413Y20447D01*
G01X2413Y16129D01*
G01X3556Y14986D01*
G01X7747Y14986D01*
G01X7874Y15113D01*
G01X16962Y21717D02*
G01X20320Y21717D01*
G01X21209Y20447D01*
G01X21209Y13716D01*
G01X19812Y12319D01*
G01X15748Y12319D01*
G01X15494Y12573D01*
G01X7620Y12573D02*
G01X6985Y12573D01*
G01X5588Y11176D01*
G01X5588Y8763D01*
G01X7239Y7112D01*
G01X12065Y7112D01*
G01X13716Y5461D01*
G01X13716Y2159D01*
G01X13335Y1778D01*
G01X3810Y1961D02*
G01X10103Y1961D01*
G01X10287Y1778D01*
G01X3365Y15176D02*
G01X3365Y12706D01*
G01X3810Y12262D01*
G54D11*
G01X13335Y1778D03*
G01X18923Y3810D03*
G01X8509Y24765D03*
G01X14986Y24765D03*
G01X10287Y1778D03*
G01X11684Y24765D03*
G01X19050Y7493D03*
G54D12*
G01X15494Y10033D03*
G01X15494Y12573D03*
G01X15494Y15113D03*
G01X15494Y17653D03*
G01X7874Y10033D03*
G01X7874Y12573D03*
G01X7874Y15113D03*
G54D13*
G01X7874Y17653D03*
G54D11*
G01X6660Y21717D03*
G01X16961Y21717D03*
G01X3810Y1961D03*
G01X3810Y12262D03*
M00*
M02*
